<svg version="1.1" id="Layer_1" xmlns="http://www.w3.org/2000/svg" xmlns:xlink="http://www.w3.org/1999/xlink" x="0px" y="0px"
	 width="100%" viewBox="0 0 327 154" enable-background="new 0 0 327 154" xml:space="preserve">
<path fill="#101827" opacity="1.000000" stroke="none" 
	d="
M246.000000,155.000000 
	C164.000015,155.000000 82.500038,155.000000 1.000044,155.000000 
	C1.000029,103.666695 1.000029,52.333397 1.000015,1.000071 
	C109.999939,1.000047 218.999878,1.000047 327.999878,1.000024 
	C327.999908,52.333263 327.999908,103.666527 327.999939,154.999893 
	C300.833344,155.000000 273.666656,155.000000 246.000000,155.000000 
M182.303192,94.400589 
	C180.262558,94.287964 178.221924,94.175331 176.261551,94.067139 
	C176.261551,106.034752 176.261551,117.404907 176.261551,128.787537 
	C184.171432,128.787537 191.753021,128.787537 199.398254,128.787537 
	C199.398254,127.057137 199.398254,125.559639 199.398254,124.352707 
	C193.645645,123.883430 188.317841,123.448799 183.471771,122.336845 
	C183.648056,116.254662 183.971344,110.171692 183.938660,104.090637 
	C183.922302,101.044144 183.257126,98.001152 182.303192,94.400589 
M89.697052,59.190075 
	C90.099014,55.447277 91.252785,51.601631 90.757538,47.981579 
	C89.438461,38.339645 80.100121,32.943737 70.535973,37.148777 
	C72.864578,39.082043 74.475609,41.020241 76.540802,42.024616 
	C83.502701,45.410454 85.141953,47.849686 84.899010,55.493763 
	C84.806953,58.390171 84.884064,61.291954 84.884064,64.363388 
	C86.577446,63.398331 87.817116,62.691841 89.020836,62.908905 
	C86.928604,75.262825 95.424362,85.228355 96.411682,97.279137 
	C102.861046,94.256111 105.145973,89.091187 106.069588,82.919884 
	C107.142189,75.753090 104.597748,69.366226 102.549973,62.318928 
	C106.317635,67.017128 110.085297,71.715332 113.842232,76.400154 
	C119.622200,71.368141 121.037209,66.873962 118.464630,59.160149 
	C117.160774,55.250546 115.124229,51.589897 113.726418,47.706028 
	C111.082520,40.359901 108.660568,32.933891 105.975243,25.037827 
	C105.074730,25.657747 103.016144,26.666199 101.484627,28.200701 
	C95.207954,34.489609 93.543755,45.091370 97.368050,53.105854 
	C98.951309,56.423882 100.542168,59.738289 101.404999,63.152378 
	C95.073570,56.534840 94.104378,56.268375 89.697052,59.190075 
M65.363274,57.909573 
	C61.953594,55.105907 61.721794,52.089252 64.553146,48.673717 
	C65.371544,47.686470 66.179726,46.347065 66.227577,45.138802 
	C66.317566,42.866879 65.850639,40.572899 65.615273,38.288090 
	C63.115891,38.692066 60.477936,38.739620 58.170303,39.636795 
	C56.835609,40.155697 55.858238,41.938480 55.019123,43.332470 
	C48.585495,54.020504 51.265865,62.623062 62.779140,70.209251 
	C62.466423,70.499390 62.153706,70.789528 61.124325,71.069153 
	C58.194294,69.564613 55.264263,68.060074 51.887234,66.326004 
	C44.241020,79.506378 42.925652,93.488655 48.139999,108.110100 
	C48.488781,109.088120 49.454929,110.076767 50.392048,110.574509 
	C54.607944,112.813713 58.786697,115.214493 63.221485,116.929611 
	C70.902435,119.900154 77.783310,116.887604 80.283218,109.019882 
	C84.053261,97.154793 82.095421,86.279541 73.229118,76.759071 
	C73.547935,76.475609 73.866753,76.192139 74.844635,76.088173 
	C80.362999,79.764977 83.009148,85.158745 84.179344,91.491745 
	C84.586555,93.695511 85.301147,95.840927 85.823753,98.025345 
	C86.316879,100.086517 86.742172,102.163918 87.462830,105.442017 
	C91.801872,94.731789 91.472740,85.650665 84.873238,77.618507 
	C80.593391,72.409576 75.513008,67.858391 71.093185,62.493023 
	C73.020615,62.301022 74.948044,62.109020 77.187897,61.885895 
	C75.377434,58.781216 73.833496,56.133579 71.952728,52.908344 
	C74.535507,52.787682 75.879387,52.724899 78.800522,52.588432 
	C76.267029,50.126144 74.727730,48.630108 73.188431,47.134071 
	C71.600212,48.837849 69.798279,50.397705 68.513321,52.305721 
	C67.864372,53.269344 68.364449,54.937996 67.940674,56.146038 
	C67.654648,56.961422 66.662628,57.529148 65.363274,57.909573 
M73.174347,143.716187 
	C78.207191,140.620026 83.604362,137.980499 88.189003,134.322571 
	C95.386658,128.579819 102.346367,122.820335 113.232704,123.817253 
	C108.031433,118.001907 102.398247,118.582016 96.653366,119.693298 
	C90.971649,120.792358 85.338737,122.434448 79.606712,122.918953 
	C69.395256,123.782104 60.114449,119.849251 50.828934,116.206993 
	C42.377762,112.891998 34.251362,108.433067 24.733505,108.710716 
	C20.709721,108.828087 18.135498,110.390205 17.404144,114.810486 
	C18.343046,114.904060 19.129658,115.094238 19.900118,115.042747 
	C35.700634,113.986877 47.295284,121.214546 56.429653,133.430801 
	C58.413887,136.084534 60.503380,138.709015 62.867413,141.015961 
	C65.453438,143.539536 68.537361,145.251450 73.174347,143.716187 
M44.971321,68.424698 
	C48.165508,62.118355 49.595371,55.767181 45.991135,49.428307 
	C36.573761,51.654629 27.624456,53.770294 18.304785,55.973518 
	C18.531372,58.448658 18.621202,61.926044 19.204786,65.318497 
	C20.719822,74.125648 21.864731,83.061996 24.293243,91.624634 
	C26.065657,97.873932 30.994129,101.932610 38.411953,103.412323 
	C37.090092,90.947029 38.174217,79.496422 44.971321,68.424698 
M211.703323,128.991333 
	C212.474884,127.920052 213.832321,126.895607 213.922333,125.769829 
	C214.480408,118.789749 214.753815,111.786926 215.198654,103.329163 
	C217.822968,109.568794 219.795395,114.433189 221.919113,119.230598 
	C222.908249,121.465012 222.951218,124.290703 226.877899,124.328598 
	C230.796600,124.366409 230.944534,121.608093 231.925873,119.342392 
	C234.010574,114.529366 235.960388,109.657921 237.965485,104.810410 
	C238.215973,104.941093 238.466446,105.071770 238.716934,105.202446 
	C239.123245,113.098824 239.529572,120.995201 239.923386,128.648621 
	C242.495102,128.648621 244.399811,128.648621 246.481171,128.648621 
	C245.803162,116.935127 245.145721,105.577049 244.486130,94.181717 
	C241.315781,94.181717 238.845978,94.181717 236.271027,94.181717 
	C233.361099,101.504662 230.489410,108.731384 227.267883,116.838493 
	C224.711517,110.725838 222.545563,105.551033 220.383072,100.374779 
	C217.519150,93.519554 217.520325,93.519066 209.498886,94.441727 
	C208.908691,105.280655 208.264587,116.205711 207.855881,127.139580 
	C207.834198,127.719208 209.802155,128.373215 211.703323,128.991333 
M104.558479,109.970413 
	C115.876114,107.020508 124.769852,102.428146 124.903015,88.276131 
	C124.963554,81.842110 128.191574,75.437881 130.101730,68.594032 
	C124.010498,69.319511 120.447693,73.121979 118.198647,78.024307 
	C114.074379,87.014122 107.697777,94.003105 100.423935,100.506714 
	C95.466743,104.938988 91.217247,110.162788 86.651321,115.032677 
	C86.987251,115.452560 87.323189,115.872452 87.659119,116.292343 
	C93.046974,114.268913 98.434830,112.245476 104.558479,109.970413 
M256.862701,106.502556 
	C256.888947,110.167969 256.773376,113.841072 256.971405,117.497177 
	C257.364685,124.758781 261.332855,128.612961 269.056152,129.493149 
	C276.878479,130.384628 283.965515,126.968849 284.678070,120.414406 
	C285.615021,111.795631 284.908142,102.998169 284.908142,94.356606 
	C283.024170,94.356606 281.125275,94.356606 278.984070,94.356606 
	C278.984070,98.833092 279.071808,102.983925 278.959381,107.129326 
	C278.847137,111.268204 278.817932,115.442780 278.225677,119.525299 
	C277.690033,123.217690 274.696960,124.738373 271.284576,124.728561 
	C267.655975,124.718124 264.786804,123.009705 264.004791,119.170219 
	C263.544006,116.907814 263.450104,114.545631 263.420258,112.225388 
	C263.343567,106.260048 263.394623,100.293060 263.394623,94.307312 
	C260.971527,94.307312 259.064362,94.307312 256.862701,94.307312 
	C256.862701,98.226669 256.862701,101.869041 256.862701,106.502556 
M184.978073,55.223167 
	C185.447205,50.394684 183.020020,47.314987 178.887634,45.370541 
	C175.888031,43.959114 172.636826,42.990852 169.849304,41.259178 
	C168.471741,40.403397 166.903961,38.024952 167.212906,36.779716 
	C167.544876,35.441601 170.060608,33.652908 171.474564,33.775673 
	C174.733994,34.058662 177.903214,35.380341 181.678833,36.440628 
	C182.032532,35.808655 182.777069,34.478291 183.531464,33.130302 
	C179.019318,28.833826 174.043076,27.595922 168.515198,28.966131 
	C164.023010,30.079624 160.581161,32.640213 160.066269,37.618492 
	C159.567245,42.443371 162.299683,45.375908 166.481262,47.218029 
	C169.515015,48.554485 172.698044,49.653416 175.498367,51.373062 
	C176.782791,52.161816 178.258698,54.453007 177.942032,55.586201 
	C177.524307,57.080990 175.350082,59.220112 174.070709,59.128609 
	C170.040939,58.840385 166.076462,57.639290 161.336365,56.632092 
	C161.246033,56.786739 160.442139,58.162945 159.682053,59.464146 
	C168.423447,67.869797 180.938141,66.014725 184.978073,55.223167 
M256.927429,50.511166 
	C255.066467,45.354729 252.765594,40.306145 251.467590,35.011692 
	C250.154358,29.655127 247.470642,27.816330 241.905304,29.557518 
	C246.227921,40.442173 250.495255,51.400127 254.961075,62.276592 
	C256.017242,64.848862 261.991608,64.859856 263.056488,62.279751 
	C267.539856,51.416939 271.812531,40.467159 276.290344,29.227791 
	C273.651642,29.227791 271.523743,29.227791 269.244324,29.227791 
	C266.017334,38.176910 262.818451,47.048084 259.319305,56.751945 
	C258.333130,54.308952 257.721039,52.792576 256.927429,50.511166 
M63.138935,23.481028 
	C53.991241,27.377039 50.387390,30.979511 48.776623,37.642311 
	C52.817501,36.775333 57.006317,36.039364 61.097031,34.938763 
	C63.608040,34.263180 66.338043,33.502434 68.324020,31.952555 
	C73.191879,28.153614 77.940147,28.090010 83.072891,31.077400 
	C84.351311,31.821476 85.729561,32.451942 87.135651,32.906681 
	C90.072586,33.856510 92.834450,33.951340 93.931503,30.240957 
	C94.963463,26.750740 94.308075,24.241478 90.268532,23.030293 
	C81.411392,20.374649 72.653656,20.427534 63.138935,23.481028 
M286.977631,57.364658 
	C286.673157,56.310566 286.368683,55.256477 285.928223,53.731522 
	C290.358948,53.731522 294.371277,54.024147 298.297455,53.570816 
	C299.648804,53.414780 301.660614,51.532337 301.864594,50.206779 
	C302.648071,45.115395 299.213593,40.178112 294.388123,38.563499 
	C289.333313,36.872139 283.751862,39.006813 281.019775,43.676331 
	C278.055664,48.742413 278.486481,56.465782 281.967743,60.669796 
	C285.274109,64.662628 292.354004,65.896095 298.153381,63.626812 
	C301.313477,62.390266 301.919647,60.692211 299.568756,58.073452 
	C295.504547,59.725811 291.440826,62.542938 286.977631,57.364658 
M221.697739,59.983112 
	C220.983307,57.902210 219.796768,55.853661 219.651505,53.733757 
	C219.336655,49.138985 219.554459,44.507710 219.554459,39.697521 
	C217.155884,39.697521 215.289886,39.697521 213.096649,39.697521 
	C213.096649,45.030392 213.050522,49.993988 213.106949,54.956425 
	C213.202698,63.379330 219.023697,66.950989 226.518707,63.282909 
	C227.365189,62.868641 228.466141,62.511906 229.330215,62.693676 
	C231.056702,63.056873 232.700699,63.812092 234.709595,64.522400 
	C234.709595,55.681507 234.709595,47.640472 234.709595,39.695297 
	C232.630569,39.695297 230.907333,39.695297 228.968506,39.695297 
	C228.968506,44.711250 229.048050,49.360329 228.944595,54.005333 
	C228.853928,58.075207 227.204605,60.742744 221.697739,59.983112 
M201.280518,38.145260 
	C201.018372,36.412998 200.756226,34.680737 200.432465,32.541302 
	C198.252258,33.186695 196.392502,33.737221 194.532745,34.287750 
	C194.820740,34.616821 195.108719,34.945889 195.396713,35.274956 
	C194.098785,36.674473 192.260956,37.877693 191.659988,39.530605 
	C191.097809,41.076832 191.615906,43.164162 192.096695,44.891384 
	C192.442612,46.134083 193.985779,47.110485 194.152985,48.321880 
	C194.490448,50.766796 194.224960,53.291256 194.260757,55.782154 
	C194.383438,64.323631 198.846939,66.946999 207.920441,62.336304 
	C205.360184,61.021690 203.604980,60.120445 201.466675,59.022488 
	C199.094070,49.995125 200.548965,44.743034 206.122543,43.249973 
	C207.825027,38.710167 203.878479,39.650383 201.280518,38.145260 
z"/>
<path fill="#FDFEFD" opacity="1.000000" stroke="none" 
	d="
M72.859047,77.283859 
	C82.095421,86.279541 84.053261,97.154793 80.283218,109.019882 
	C77.783310,116.887604 70.902435,119.900154 63.221485,116.929611 
	C58.786697,115.214493 54.607944,112.813713 50.392048,110.574509 
	C49.454929,110.076767 48.488781,109.088120 48.139999,108.110100 
	C42.925652,93.488655 44.241020,79.506378 51.887234,66.326004 
	C55.264263,68.060074 58.194294,69.564613 61.712929,71.338333 
	C65.820709,73.499626 69.339874,75.391739 72.859047,77.283859 
z"/>
<path fill="#F9FCFA" opacity="1.000000" stroke="none" 
	d="
M72.791939,143.772675 
	C68.537361,145.251450 65.453438,143.539536 62.867413,141.015961 
	C60.503380,138.709015 58.413887,136.084534 56.429653,133.430801 
	C47.295284,121.214546 35.700634,113.986877 19.900118,115.042747 
	C19.129658,115.094238 18.343046,114.904060 17.404144,114.810486 
	C18.135498,110.390205 20.709721,108.828087 24.733505,108.710716 
	C34.251362,108.433067 42.377762,112.891998 50.828934,116.206993 
	C60.114449,119.849251 69.395256,123.782104 79.606712,122.918953 
	C85.338737,122.434448 90.971649,120.792358 96.653366,119.693298 
	C102.398247,118.582016 108.031433,118.001907 113.232704,123.817253 
	C102.346367,122.820335 95.386658,128.579819 88.189003,134.322571 
	C83.604362,137.980499 78.207191,140.620026 72.791939,143.772675 
z"/>
<path fill="#FCFDFC" opacity="1.000000" stroke="none" 
	d="
M44.832458,68.785217 
	C38.174217,79.496422 37.090092,90.947029 38.411953,103.412323 
	C30.994129,101.932610 26.065657,97.873932 24.293243,91.624634 
	C21.864731,83.061996 20.719822,74.125648 19.204786,65.318497 
	C18.621202,61.926044 18.531372,58.448658 18.304785,55.973518 
	C27.624456,53.770294 36.573761,51.654629 45.991135,49.428307 
	C49.595371,55.767181 48.165508,62.118355 44.832458,68.785217 
z"/>
<path fill="#F6FBF8" opacity="1.000000" stroke="none" 
	d="
M211.273590,128.991974 
	C209.802155,128.373215 207.834198,127.719208 207.855881,127.139580 
	C208.264587,116.205711 208.908691,105.280655 209.498886,94.441727 
	C217.520325,93.519066 217.519150,93.519554 220.383072,100.374779 
	C222.545563,105.551033 224.711517,110.725838 227.267883,116.838493 
	C230.489410,108.731384 233.361099,101.504662 236.271027,94.181717 
	C238.845978,94.181717 241.315781,94.181717 244.486130,94.181717 
	C245.145721,105.577049 245.803162,116.935127 246.481171,128.648621 
	C244.399811,128.648621 242.495102,128.648621 239.923386,128.648621 
	C239.529572,120.995201 239.123245,113.098824 238.716934,105.202446 
	C238.466446,105.071770 238.215973,104.941093 237.965485,104.810410 
	C235.960388,109.657921 234.010574,114.529366 231.925873,119.342392 
	C230.944534,121.608093 230.796600,124.366409 226.877899,124.328598 
	C222.951218,124.290703 222.908249,121.465012 221.919113,119.230598 
	C219.795395,114.433189 217.822968,109.568794 215.198654,103.329163 
	C214.753815,111.786926 214.480408,118.789749 213.922333,125.769829 
	C213.832321,126.895607 212.474884,127.920052 211.273590,128.991974 
z"/>
<path fill="#F9FCFA" opacity="1.000000" stroke="none" 
	d="
M102.129570,63.054340 
	C100.542168,59.738289 98.951309,56.423882 97.368050,53.105854 
	C93.543755,45.091370 95.207954,34.489609 101.484627,28.200701 
	C103.016144,26.666199 105.074730,25.657747 105.975243,25.037827 
	C108.660568,32.933891 111.082520,40.359901 113.726418,47.706028 
	C115.124229,51.589897 117.160774,55.250546 118.464630,59.160149 
	C121.037209,66.873962 119.622200,71.368141 113.842232,76.400154 
	C110.085297,71.715332 106.317635,67.017128 102.314575,62.664589 
	C102.079178,63.010254 102.129570,63.054340 102.129570,63.054340 
z"/>
<path fill="#F6FBF8" opacity="1.000000" stroke="none" 
	d="
M70.791321,63.012493 
	C75.513008,67.858391 80.593391,72.409576 84.873238,77.618507 
	C91.472740,85.650665 91.801872,94.731789 87.462830,105.442017 
	C86.742172,102.163918 86.316879,100.086517 85.823753,98.025345 
	C85.301147,95.840927 84.586555,93.695511 84.179344,91.491745 
	C83.009148,85.158745 80.362999,79.764977 74.464966,75.640472 
	C70.440575,73.357552 66.795845,71.522331 63.151115,69.687103 
	C51.265865,62.623062 48.585495,54.020504 55.019123,43.332470 
	C55.858238,41.938480 56.835609,40.155697 58.170303,39.636795 
	C60.477936,38.739620 63.115891,38.692066 65.615265,38.288090 
	C65.850639,40.572899 66.317566,42.866879 66.227577,45.138802 
	C66.179726,46.347065 65.371544,47.686470 64.553146,48.673717 
	C61.721794,52.089252 61.953594,55.105907 65.741425,58.377151 
	C67.676826,60.233986 69.234070,61.623238 70.791321,63.012493 
z"/>
<path fill="#F9FCFA" opacity="1.000000" stroke="none" 
	d="
M104.190582,110.096230 
	C98.434830,112.245476 93.046974,114.268913 87.659119,116.292343 
	C87.323189,115.872452 86.987251,115.452560 86.651321,115.032677 
	C91.217247,110.162788 95.466743,104.938988 100.423935,100.506714 
	C107.697777,94.003105 114.074379,87.014122 118.198647,78.024307 
	C120.447693,73.121979 124.010498,69.319511 130.101730,68.594032 
	C128.191574,75.437881 124.963554,81.842110 124.903015,88.276131 
	C124.769852,102.428146 115.876114,107.020508 104.190582,110.096230 
z"/>
<path fill="#F6FBF8" opacity="1.000000" stroke="none" 
	d="
M256.862701,106.006989 
	C256.862701,101.869041 256.862701,98.226669 256.862701,94.307312 
	C259.064362,94.307312 260.971527,94.307312 263.394623,94.307312 
	C263.394623,100.293060 263.343567,106.260048 263.420258,112.225388 
	C263.450104,114.545631 263.544006,116.907814 264.004791,119.170219 
	C264.786804,123.009705 267.655975,124.718124 271.284576,124.728561 
	C274.696960,124.738373 277.690033,123.217690 278.225677,119.525299 
	C278.817932,115.442780 278.847137,111.268204 278.959381,107.129326 
	C279.071808,102.983925 278.984070,98.833092 278.984070,94.356606 
	C281.125275,94.356606 283.024170,94.356606 284.908142,94.356606 
	C284.908142,102.998169 285.615021,111.795631 284.678070,120.414406 
	C283.965515,126.968849 276.878479,130.384628 269.056152,129.493149 
	C261.332855,128.612961 257.364685,124.758781 256.971405,117.497177 
	C256.773376,113.841072 256.888947,110.167969 256.862701,106.006989 
z"/>
<path fill="#F4FAF6" opacity="1.000000" stroke="none" 
	d="
M184.938232,55.621605 
	C180.938141,66.014725 168.423447,67.869797 159.682053,59.464146 
	C160.442139,58.162945 161.246033,56.786739 161.336365,56.632092 
	C166.076462,57.639290 170.040939,58.840385 174.070709,59.128609 
	C175.350082,59.220112 177.524307,57.080990 177.942032,55.586201 
	C178.258698,54.453007 176.782791,52.161816 175.498367,51.373062 
	C172.698044,49.653416 169.515015,48.554485 166.481262,47.218029 
	C162.299683,45.375908 159.567245,42.443371 160.066269,37.618492 
	C160.581161,32.640213 164.023010,30.079624 168.515198,28.966131 
	C174.043076,27.595922 179.019318,28.833826 183.531464,33.130302 
	C182.777069,34.478291 182.032532,35.808655 181.678833,36.440628 
	C177.903214,35.380341 174.733994,34.058662 171.474564,33.775673 
	C170.060608,33.652908 167.544876,35.441601 167.212906,36.779716 
	C166.903961,38.024952 168.471741,40.403397 169.849304,41.259178 
	C172.636826,42.990852 175.888031,43.959114 178.887634,45.370541 
	C183.020020,47.314987 185.447205,50.394684 184.938232,55.621605 
z"/>
<path fill="#FAFDFB" opacity="1.000000" stroke="none" 
	d="
M102.056732,62.985420 
	C104.597748,69.366226 107.142189,75.753090 106.069588,82.919884 
	C105.145973,89.091187 102.861046,94.256111 96.411682,97.279137 
	C95.424362,85.228355 86.928604,75.262825 88.996109,62.457817 
	C88.971382,62.006729 88.995422,62.091419 89.311020,61.971458 
	C89.781876,61.208019 89.937134,60.564541 90.043488,59.918739 
	C89.994576,59.916412 89.947708,60.002399 89.947708,60.002399 
	C94.104378,56.268375 95.073570,56.534840 101.767288,63.103359 
	C102.129570,63.054340 102.079178,63.010254 102.056732,62.985420 
z"/>
<path fill="#F6FAF7" opacity="1.000000" stroke="none" 
	d="
M257.018188,50.893684 
	C257.721039,52.792576 258.333130,54.308952 259.319305,56.751945 
	C262.818451,47.048084 266.017334,38.176910 269.244324,29.227791 
	C271.523743,29.227791 273.651642,29.227791 276.290344,29.227791 
	C271.812531,40.467159 267.539856,51.416939 263.056488,62.279751 
	C261.991608,64.859856 256.017242,64.848862 254.961075,62.276592 
	C250.495255,51.400127 246.227921,40.442173 241.905304,29.557518 
	C247.470642,27.816330 250.154358,29.655127 251.467590,35.011692 
	C252.765594,40.306145 255.066467,45.354729 257.018188,50.893684 
z"/>
<path fill="#F8FCFA" opacity="1.000000" stroke="none" 
	d="
M63.503082,23.324528 
	C72.653656,20.427534 81.411392,20.374649 90.268532,23.030293 
	C94.308075,24.241478 94.963463,26.750740 93.931503,30.240957 
	C92.834450,33.951340 90.072586,33.856510 87.135651,32.906681 
	C85.729561,32.451942 84.351311,31.821476 83.072891,31.077400 
	C77.940147,28.090010 73.191879,28.153614 68.324020,31.952555 
	C66.338043,33.502434 63.608040,34.263180 61.097031,34.938763 
	C57.006317,36.039364 52.817501,36.775333 48.776623,37.642311 
	C50.387390,30.979511 53.991241,27.377039 63.503082,23.324528 
z"/>
<path fill="#EDF6F1" opacity="1.000000" stroke="none" 
	d="
M287.190979,57.727139 
	C291.440826,62.542938 295.504547,59.725811 299.568756,58.073452 
	C301.919647,60.692211 301.313477,62.390266 298.153381,63.626812 
	C292.354004,65.896095 285.274109,64.662628 281.967743,60.669796 
	C278.486481,56.465782 278.055664,48.742413 281.019775,43.676331 
	C283.751862,39.006813 289.333313,36.872139 294.388123,38.563499 
	C299.213593,40.178112 302.648071,45.115395 301.864594,50.206779 
	C301.660614,51.532337 299.648804,53.414780 298.297455,53.570816 
	C294.371277,54.024147 290.358948,53.731522 285.928223,53.731522 
	C286.368683,55.256477 286.673157,56.310566 287.190979,57.727139 
M287.768585,43.326447 
	C287.060150,44.990013 286.351715,46.653580 285.534210,48.573235 
	C289.503845,48.573235 292.568787,48.573235 295.665314,48.573235 
	C294.684052,42.436543 293.646149,41.658123 287.768585,43.326447 
z"/>
<path fill="#EFF7F2" opacity="1.000000" stroke="none" 
	d="
M222.125244,60.100170 
	C227.204605,60.742744 228.853928,58.075207 228.944595,54.005333 
	C229.048050,49.360329 228.968506,44.711250 228.968506,39.695297 
	C230.907333,39.695297 232.630569,39.695297 234.709595,39.695297 
	C234.709595,47.640472 234.709595,55.681507 234.709595,64.522400 
	C232.700699,63.812092 231.056702,63.056873 229.330215,62.693676 
	C228.466141,62.511906 227.365189,62.868641 226.518707,63.282909 
	C219.023697,66.950989 213.202698,63.379330 213.106949,54.956425 
	C213.050522,49.993988 213.096649,45.030392 213.096649,39.697521 
	C215.289886,39.697521 217.155884,39.697521 219.554459,39.697521 
	C219.554459,44.507710 219.336655,49.138985 219.651505,53.733757 
	C219.796768,55.853661 220.983307,57.902210 222.125244,60.100170 
z"/>
<path fill="#F3F9F5" opacity="1.000000" stroke="none" 
	d="
M182.990021,123.014168 
	C188.317841,123.448799 193.645645,123.883430 199.398254,124.352707 
	C199.398254,125.559639 199.398254,127.057137 199.398254,128.787537 
	C191.753021,128.787537 184.171432,128.787537 176.261551,128.787537 
	C176.261551,117.404907 176.261551,106.034752 176.261551,94.067139 
	C178.221924,94.175331 180.262558,94.287964 182.494827,95.142105 
	C182.787659,104.927139 182.888840,113.970650 182.990021,123.014168 
z"/>
<path fill="#EAF5EE" opacity="1.000000" stroke="none" 
	d="
M201.543793,38.451149 
	C203.878479,39.650383 207.825027,38.710167 206.122543,43.249973 
	C200.548965,44.743034 199.094070,49.995125 201.466675,59.022488 
	C203.604980,60.120445 205.360184,61.021690 207.920441,62.336304 
	C198.846939,66.946999 194.383438,64.323631 194.260757,55.782154 
	C194.224960,53.291256 194.490448,50.766796 194.152985,48.321880 
	C193.985779,47.110485 192.442612,46.134083 192.096695,44.891384 
	C191.615906,43.164162 191.097809,41.076832 191.659988,39.530605 
	C192.260956,37.877693 194.098785,36.674473 195.396713,35.274956 
	C195.108719,34.945889 194.820740,34.616821 194.532745,34.287750 
	C196.392502,33.737221 198.252258,33.186695 200.432465,32.541302 
	C200.756226,34.680737 201.018372,36.412998 201.543793,38.451149 
z"/>
<path fill="#F4F9F6" opacity="1.000000" stroke="none" 
	d="
M89.014084,61.996040 
	C87.817116,62.691841 86.577446,63.398331 84.884064,64.363388 
	C84.884064,61.291954 84.806953,58.390171 84.899010,55.493763 
	C85.141953,47.849686 83.502701,45.410454 76.540802,42.024616 
	C74.475609,41.020241 72.864578,39.082043 70.535973,37.148777 
	C80.100121,32.943737 89.438461,38.339645 90.757538,47.981579 
	C91.252785,51.601631 90.099014,55.447277 89.822380,59.596237 
	C89.947708,60.002399 89.994576,59.916412 89.611183,59.955986 
	C89.150330,60.694176 89.072876,61.392799 88.995422,62.091419 
	C88.995422,62.091419 88.971382,62.006729 89.014084,61.996040 
z"/>
<path fill="#EAF4EE" opacity="1.000000" stroke="none" 
	d="
M70.942253,62.752758 
	C69.234070,61.623238 67.676826,60.233986 66.052994,58.526192 
	C66.662628,57.529148 67.654648,56.961422 67.940674,56.146038 
	C68.364449,54.937996 67.864372,53.269344 68.513321,52.305721 
	C69.798279,50.397705 71.600212,48.837849 73.188431,47.134071 
	C74.727730,48.630108 76.267029,50.126144 78.800522,52.588432 
	C75.879387,52.724899 74.535507,52.787682 71.952728,52.908344 
	C73.833496,56.133579 75.377434,58.781216 77.187897,61.885895 
	C74.948044,62.109020 73.020615,62.301022 70.942253,62.752758 
z"/>
<path fill="#189846" opacity="1.000000" stroke="none" 
	d="
M62.965126,69.948181 
	C66.795845,71.522331 70.440575,73.357552 74.135437,75.550728 
	C73.866753,76.192139 73.547935,76.475609 73.044083,77.021469 
	C69.339874,75.391739 65.820709,73.499626 62.071262,71.343582 
	C62.153706,70.789528 62.466423,70.499390 62.965126,69.948181 
z"/>
<path fill="#008F34" opacity="1.000000" stroke="none" 
	d="
M183.230896,122.675507 
	C182.888840,113.970650 182.787659,104.927139 182.785919,95.420097 
	C183.257126,98.001152 183.922302,101.044144 183.938660,104.090637 
	C183.971344,110.171692 183.648056,116.254662 183.230896,122.675507 
z"/>
<path fill="#029440" opacity="1.000000" stroke="none" 
	d="
M89.311020,61.971458 
	C89.072876,61.392799 89.150330,60.694176 89.660095,59.958313 
	C89.937134,60.564541 89.781876,61.208019 89.311020,61.971458 
z"/>
<path fill="#149848" opacity="1.000000" stroke="none" 
	d="
M288.074371,43.084061 
	C293.646149,41.658123 294.684052,42.436543 295.665314,48.573235 
	C292.568787,48.573235 289.503845,48.573235 285.534210,48.573235 
	C286.351715,46.653580 287.060150,44.990013 288.074371,43.084061 
z"/>
</svg>