<svg width="710" height="564" viewBox="0 0 710 564" fill="none" xmlns="http://www.w3.org/2000/svg">
<rect x="90" y="78" width="529" height="479" rx="53" stroke="url(#paint0_linear_196_2)" stroke-width="14"/>
<path d="M215.241 164.739H202.491C202.128 162.648 201.457 160.795 200.48 159.182C199.503 157.545 198.287 156.159 196.832 155.023C195.378 153.886 193.719 153.034 191.855 152.466C190.014 151.875 188.026 151.58 185.889 151.58C182.094 151.58 178.73 152.534 175.798 154.443C172.866 156.33 170.571 159.102 168.912 162.761C167.253 166.398 166.423 170.841 166.423 176.091C166.423 181.432 167.253 185.932 168.912 189.591C170.594 193.227 172.889 195.977 175.798 197.841C178.73 199.682 182.082 200.602 185.855 200.602C187.946 200.602 189.901 200.33 191.719 199.784C193.56 199.216 195.207 198.386 196.662 197.295C198.139 196.205 199.378 194.864 200.378 193.273C201.401 191.682 202.105 189.864 202.491 187.818L215.241 187.886C214.764 191.205 213.73 194.318 212.139 197.227C210.571 200.136 208.514 202.705 205.969 204.932C203.423 207.136 200.446 208.864 197.037 210.114C193.628 211.341 189.844 211.955 185.685 211.955C179.548 211.955 174.071 210.534 169.253 207.693C164.435 204.852 160.639 200.75 157.866 195.386C155.094 190.023 153.707 183.591 153.707 176.091C153.707 168.568 155.105 162.136 157.901 156.795C160.696 151.432 164.503 147.33 169.321 144.489C174.139 141.648 179.594 140.227 185.685 140.227C189.571 140.227 193.185 140.773 196.526 141.864C199.866 142.955 202.844 144.557 205.457 146.67C208.071 148.761 210.219 151.33 211.901 154.375C213.605 157.398 214.719 160.852 215.241 164.739ZM236.165 141.182L254.335 196.136H255.051L273.188 141.182H287.097L262.483 211H246.869L222.29 141.182H236.165Z" fill="#23C45E"/>
<circle cx="503" cy="167" r="45" stroke="#D9D9D9" stroke-width="10"/>
<line x1="138.016" y1="279.5" x2="355.016" y2="280.5" stroke="#D9D9D9" stroke-width="7"/>
<line x1="138" y1="341.5" x2="570" y2="341.5" stroke="#D9D9D9" stroke-width="7"/>
<line x1="138" y1="423.5" x2="570" y2="423.5" stroke="#D9D9D9" stroke-opacity="0.63" stroke-width="7"/>
<line x1="138" y1="382.5" x2="570" y2="382.5" stroke="#D9D9D9" stroke-width="7"/>
<line x1="138" y1="464.5" x2="570" y2="464.5" stroke="#D9D9D9" stroke-opacity="0.39" stroke-width="7"/>
<defs>
<linearGradient id="paint0_linear_196_2" x1="354.5" y1="71" x2="355" y2="498.5" gradientUnits="userSpaceOnUse">
<stop stop-color="#D9D9D9"/>
<stop offset="1" stop-color="#737373" stop-opacity="0"/>
</linearGradient>
</defs>
</svg>
