<svg width="760" height="398" viewBox="0 0 760 398" fill="none" xmlns="http://www.w3.org/2000/svg">
<path d="M362.24 35.568H35.525V362.443H362.24V35.568Z" fill="#2F854C"/>
<path d="M724.467 35.568H397.752V362.443H724.467V35.568Z" fill="#2F854C"/>
<path d="M233.115 294.498V224.877H271.689V298.326C271.689 303.537 272.88 307.248 275.267 309.459C277.665 311.674 280.869 312.779 284.872 312.779C288.884 312.779 292.114 311.674 294.56 309.459C297.005 307.248 298.244 303.537 298.244 298.326V224.877H336.635V294.498C336.635 302.807 335.385 309.865 332.881 315.686C330.385 321.506 326.869 326.233 322.369 329.897C317.857 333.561 312.4 336.217 306.002 337.866C299.6 339.538 292.553 340.366 284.873 340.366C277.307 340.366 270.346 339.538 264.002 337.866C257.662 336.218 252.201 333.561 247.643 329.897C243.073 326.233 239.506 321.506 236.955 315.686C234.389 309.865 233.115 302.807 233.115 294.498ZM164.986 311.947C164.986 312.717 165.365 313.107 166.15 313.107C166.697 313.107 166.982 312.716 166.982 311.947C167.982 304.631 169.263 296.635 170.822 287.935C172.388 279.24 173.931 270.763 175.498 262.505C177.057 254.263 178.56 246.751 180.002 240.005C181.451 233.235 182.564 228.208 183.35 224.876H219.416V337.376H197.713V242.661C197.713 242.102 197.315 241.829 196.541 241.829C196.1 241.829 195.873 242.102 195.873 242.661C194.986 247.083 194.033 252.044 193.037 257.532C192.025 263.012 190.807 269.434 189.353 276.802C187.908 284.173 186.158 292.786 184.103 302.638C182.044 312.505 179.619 324.076 176.837 337.376H154.286C151.509 324.302 149.141 313.001 147.192 303.47C145.235 293.95 143.54 285.591 142.094 278.38C140.653 271.185 139.367 264.759 138.254 259.107C137.149 253.459 136.031 247.974 134.914 242.662C134.914 242.103 134.523 241.83 133.742 241.83C133.304 241.83 133.078 242.103 133.078 242.662V337.377H113.211V224.877H149.441C150 227.311 150.675 230.463 151.449 234.35C152.219 238.237 153.094 242.573 154.031 247.397C154.984 252.202 155.949 257.366 156.961 262.835C157.957 268.335 158.961 273.921 159.965 279.632C160.969 285.335 161.883 290.933 162.723 296.421C163.557 301.896 164.311 307.076 164.986 311.947ZM58.775 224.877H69.795V329.068H101.854V337.377H58.775V224.877Z" fill="white"/>
<path d="M430.846 337H425.531L425.565 333.599H430.846C432.384 333.599 433.672 333.263 434.708 332.591C435.757 331.919 436.543 330.956 437.067 329.703C437.602 328.449 437.87 326.957 437.87 325.225V323.875C437.87 322.531 437.716 321.34 437.409 320.303C437.112 319.266 436.668 318.395 436.076 317.688C435.495 316.982 434.777 316.447 433.922 316.082C433.079 315.717 432.105 315.535 431 315.535H425.429V312.117H431C432.652 312.117 434.162 312.396 435.529 312.955C436.896 313.501 438.075 314.293 439.066 315.33C440.069 316.367 440.838 317.609 441.374 319.056C441.909 320.503 442.177 322.12 442.177 323.909V325.225C442.177 327.014 441.909 328.632 441.374 330.079C440.838 331.526 440.069 332.767 439.066 333.804C438.064 334.83 436.868 335.621 435.478 336.18C434.099 336.727 432.555 337 430.846 337ZM427.907 312.117V337H423.617V312.117H427.907ZM466.27 333.599V337H453.06V333.599H466.27ZM454.273 312.117V337H449.983V312.117H454.273ZM464.544 322.508V325.857H453.06V322.508H464.544ZM466.185 312.117V315.535H453.06V312.117H466.185ZM481.801 332.454L488.347 312.117H493.081L484.16 337H480.964L481.801 332.454ZM475.751 312.117L482.246 332.454L483.134 337H479.921L471.035 312.117H475.751ZM515.653 333.599V337H502.442V333.599H515.653ZM503.656 312.117V337H499.366V312.117H503.656ZM513.927 322.508V325.857H502.442V322.508H513.927ZM515.567 312.117V315.535H502.442V312.117H515.567ZM538.242 333.599V337H525.75V333.599H538.242ZM526.946 312.117V337H522.656V312.117H526.946ZM563.771 323.875V325.242C563.771 327.122 563.526 328.808 563.036 330.301C562.546 331.793 561.846 333.064 560.934 334.112C560.034 335.16 558.952 335.963 557.687 336.521C556.422 337.068 555.021 337.342 553.483 337.342C551.956 337.342 550.561 337.068 549.296 336.521C548.043 335.963 546.955 335.16 546.032 334.112C545.109 333.064 544.391 331.793 543.878 330.301C543.377 328.808 543.126 327.122 543.126 325.242V323.875C543.126 321.995 543.377 320.315 543.878 318.833C544.38 317.341 545.086 316.071 545.998 315.022C546.92 313.963 548.008 313.16 549.262 312.613C550.526 312.055 551.922 311.775 553.449 311.775C554.987 311.775 556.388 312.055 557.653 312.613C558.917 313.16 560.006 313.963 560.917 315.022C561.828 316.071 562.529 317.341 563.019 318.833C563.52 320.315 563.771 321.995 563.771 323.875ZM559.481 325.242V323.841C559.481 322.451 559.345 321.226 559.071 320.167C558.809 319.096 558.416 318.201 557.892 317.483C557.379 316.754 556.747 316.207 555.995 315.843C555.243 315.467 554.394 315.279 553.449 315.279C552.503 315.279 551.66 315.467 550.919 315.843C550.179 316.207 549.547 316.754 549.022 317.483C548.51 318.201 548.117 319.096 547.843 320.167C547.57 321.226 547.433 322.451 547.433 323.841V325.242C547.433 326.632 547.57 327.863 547.843 328.934C548.117 330.005 548.515 330.91 549.04 331.651C549.575 332.38 550.213 332.933 550.954 333.309C551.694 333.673 552.537 333.855 553.483 333.855C554.44 333.855 555.289 333.673 556.029 333.309C556.77 332.933 557.396 332.38 557.909 331.651C558.422 330.91 558.809 330.005 559.071 328.934C559.345 327.863 559.481 326.632 559.481 325.242ZM581.011 327.72H574.534V324.319H581.011C582.139 324.319 583.051 324.137 583.746 323.772C584.441 323.408 584.948 322.907 585.267 322.269C585.597 321.619 585.762 320.879 585.762 320.047C585.762 319.261 585.597 318.526 585.267 317.842C584.948 317.147 584.441 316.589 583.746 316.167C583.051 315.746 582.139 315.535 581.011 315.535H575.85V337H571.561V312.117H581.011C582.937 312.117 584.572 312.459 585.916 313.143C587.272 313.815 588.303 314.749 589.009 315.945C589.716 317.13 590.069 318.486 590.069 320.013C590.069 321.619 589.716 322.998 589.009 324.148C588.303 325.299 587.272 326.182 585.916 326.797C584.572 327.413 582.937 327.72 581.011 327.72ZM613.701 333.599V337H600.49V333.599H613.701ZM601.704 312.117V337H597.414V312.117H601.704ZM611.975 322.508V325.857H600.49V322.508H611.975ZM613.615 312.117V315.535H600.49V312.117H613.615ZM620.704 312.117H629.505C631.397 312.117 633.009 312.402 634.342 312.972C635.675 313.541 636.694 314.384 637.401 315.501C638.119 316.606 638.478 317.973 638.478 319.603C638.478 320.844 638.25 321.938 637.794 322.884C637.338 323.829 636.694 324.627 635.863 325.276C635.031 325.914 634.04 326.41 632.889 326.763L631.59 327.396H623.678L623.644 323.995H629.574C630.599 323.995 631.454 323.812 632.137 323.448C632.821 323.083 633.333 322.588 633.675 321.961C634.028 321.323 634.205 320.605 634.205 319.808C634.205 318.942 634.034 318.19 633.692 317.552C633.362 316.902 632.849 316.407 632.154 316.065C631.459 315.712 630.576 315.535 629.505 315.535H624.994V337H620.704V312.117ZM634.906 337L629.061 325.823L633.556 325.806L639.486 336.778V337H634.906ZM659.341 330.591C659.341 330.079 659.261 329.623 659.102 329.224C658.953 328.825 658.686 328.461 658.298 328.13C657.911 327.8 657.364 327.481 656.658 327.173C655.963 326.854 655.074 326.53 653.992 326.199C652.807 325.835 651.713 325.43 650.71 324.986C649.719 324.53 648.853 324.006 648.113 323.414C647.372 322.81 646.797 322.12 646.387 321.346C645.977 320.56 645.771 319.654 645.771 318.628C645.771 317.614 645.982 316.692 646.404 315.86C646.837 315.028 647.446 314.31 648.232 313.707C649.03 313.091 649.97 312.618 651.052 312.288C652.135 311.946 653.331 311.775 654.641 311.775C656.487 311.775 658.076 312.117 659.409 312.801C660.754 313.484 661.785 314.402 662.502 315.552C663.232 316.703 663.596 317.973 663.596 319.363H659.341C659.341 318.543 659.164 317.819 658.811 317.193C658.469 316.555 657.945 316.054 657.239 315.689C656.544 315.324 655.661 315.142 654.59 315.142C653.576 315.142 652.733 315.296 652.061 315.604C651.388 315.911 650.887 316.327 650.557 316.851C650.226 317.375 650.061 317.968 650.061 318.628C650.061 319.096 650.169 319.523 650.386 319.91C650.602 320.286 650.933 320.639 651.377 320.97C651.821 321.289 652.38 321.591 653.052 321.875C653.724 322.16 654.516 322.434 655.427 322.696C656.806 323.106 658.008 323.562 659.033 324.063C660.059 324.553 660.913 325.111 661.597 325.738C662.28 326.364 662.793 327.076 663.135 327.874C663.477 328.66 663.647 329.555 663.647 330.557C663.647 331.605 663.437 332.551 663.015 333.394C662.594 334.226 661.99 334.938 661.204 335.53C660.429 336.111 659.495 336.561 658.401 336.88C657.319 337.188 656.111 337.342 654.778 337.342C653.582 337.342 652.402 337.182 651.24 336.863C650.09 336.544 649.041 336.06 648.096 335.411C647.15 334.75 646.398 333.93 645.84 332.95C645.282 331.958 645.002 330.802 645.002 329.48H649.292C649.292 330.289 649.429 330.979 649.702 331.548C649.987 332.118 650.38 332.585 650.881 332.95C651.383 333.303 651.964 333.565 652.625 333.736C653.297 333.907 654.014 333.992 654.778 333.992C655.78 333.992 656.618 333.85 657.29 333.565C657.974 333.28 658.486 332.881 658.828 332.369C659.17 331.856 659.341 331.264 659.341 330.591Z" fill="white"/>
</svg>
