<svg height="266.67844" viewBox="0 0 299.99999 266.67843" width="300" xmlns="http://www.w3.org/2000/svg"><g fill="#101827"><path d="m154.5704 266.24334h7.15741v-8.98009c0-1.70116.26655-2.87708.81139-3.53559.54484-.65852 1.24647-.98777 2.11273-.98777.78786 0 1.3915.24694 1.83051.73691.43509.48604.65067 1.32094.65067 2.49294v10.28144h7.20446v-11.88461c0-2.45766-.56836-4.2921-1.68548-5.47193-1.11713-1.18376-2.67326-1.7678-4.65664-1.7678-1.46989 0-2.70853.26654-3.72765.80355-1.02697.54092-2.03826 1.42286-3.02995 2.66933v-3.04563h-6.66745zm-17.63876-11.01051c.11367-1.10928.39197-1.95594.82314-2.52038.68203-.89762 1.58749-1.35231 2.72813-1.35231.98385 0 1.78347.29006 2.38711.8937s.97601 1.59141 1.11712 2.97899zm14.34227 2.62622c0-2.47335-.40765-4.47241-1.21903-6.0011-.81139-1.54045-1.99122-2.70853-3.53951-3.51991-1.5483-.80355-3.65711-1.21904-6.33036-1.21904-3.30433 0-5.8835.90154-7.75713 2.70853-1.87363 1.81091-2.80261 4.16667-2.80261 7.09862 0 2.05002.46645 3.84133 1.39151 5.35827.93289 1.52477 2.10881 2.63405 3.52775 3.33176 1.42286.69771 3.36704 1.05441 5.84431 1.05441 2.85356 0 5.04468-.40765 6.56553-1.22688 1.5287-.81922 2.83396-2.16368 3.90797-4.04123l-7.0555-.65068c-.44685.56836-.86626.95642-1.2504 1.18376-.63107.35277-1.30526.52916-2.01081.52916-1.11321 0-2.02258-.40765-2.71245-1.21511-.48997-.56836-.79963-1.41894-.92898-2.57526h14.36579zm-44.80245 8.38429h7.16526v-8.98009c0-1.70116.27046-2.87708.81138-3.53559.53701-.65852 1.24256-.98777 2.11273-.98777.78395 0 1.39151.24694 1.8266.73691.439.48604.65067 1.32094.65067 2.49294v10.28144h7.20053v-11.88461c0-2.44982-.56052-4.27642-1.67764-5.46017-1.12104-1.18768-2.65365-1.77956-4.60567-1.77956-1.31703 0-2.44983.21951-3.41408.6546-.96426.43117-1.93243 1.1524-2.90452 2.1676v-9.51317h-7.16526zm-10.924267-5.11132c-.642834.48604-1.426779.72515-2.367513.72515-1.1328 0-2.053935-.39982-2.783004-1.19552-.732988-.79962-1.093603-1.95986-1.093603-3.50031 0-1.72076.364534-3.01427 1.105362-3.85309.732989-.8545 1.689401-1.27391 2.869238-1.27391.944654 0 1.697241.1999 2.246002.60363.56444.40766.940734 1.01129 1.156319 1.807l6.738006-.90154c-.63892-2.09705-1.76388-3.68454-3.36312-4.78598-1.603171-1.08577-3.927567-1.63845-6.981032-1.63845-2.183287 0-3.974601.29006-5.373942.86626-.881938.36846-1.732518.91722-2.5635 1.66196-.834901.74475-1.497334 1.59141-1.975541 2.52823-.654593 1.27783-.98385 2.87707-.98385 4.8095 0 1.83835.270461 3.31608.811383 4.43321.540922 1.10928 1.281749 2.08137 2.234242 2.90843s2.089213 1.41894 3.41016 1.79132c1.317028.37629 2.971151.56052 4.954531.56052 2.050016 0 3.751176-.28614 5.076043-.86626 1.336626-.57228 2.430226-1.38367 3.284726-2.41847.85842-1.04265 1.4699-2.26952 1.85011-3.68846l-6.808558-.77219c-.321417.97993-.803544 1.72076-1.442459 2.19897m-36.555346 5.11132h7.165256v-8.98009c0-1.70116.266541-2.87708.807463-3.53559.548761-.65852 1.246472-.98777 2.116651-.98777.787864 0 1.391502.24694 1.830511.73691.435089.48604.650674 1.32094.650674 2.49294v10.28144h7.204453v-11.88461c0-2.45766-.56444-4.2921-1.681562-5.47193-1.12888-1.18376-2.677171-1.7678-4.656632-1.7678-1.469896 0-2.712449.26654-3.735497.80355-1.019128.54092-2.034337 1.42286-3.026027 2.66933v-3.04563h-6.67529zm-12.78222-21.05676h4.633114v-4.40577h-4.633114zm-7.463155 0h4.582158v-4.40577h-4.582158zm15.894481 2.35183h-7.165255v8.99577c0 1.709-.274381 2.88492-.815303 3.54343-.548761.65067-1.242552.97993-2.100972.97993-.787865 0-1.395422-.24694-1.830511-.73691-.435089-.4978-.654594-1.32486-.654594-2.50078v-10.28928h-7.200533v11.90421c0 2.45766.56052 4.2725 1.685481 5.45625 1.117122 1.17592 2.665413 1.76388 4.637034 1.76388 1.481655 0 2.728128-.26262 3.739417-.79179 1.019128-.53308 2.026497-1.4111 3.022107-2.66149v3.02995h6.694888v-18.69709h-.01176zm-53.3356849 18.70493h6.5263406v-19.68094l5.0250863 19.68094h5.910944l5.032925-19.68094v19.68094h6.53418v-25.81139h-10.485261l-4.013798 15.70634-4.041235-15.70634h-10.4891819z" stroke-width="3.91972"/><path d="m278.11618 228.57479h7.31813v-4.8683l2.70461-2.63405 3.79037 7.50235h8.07071l-7.09862-12.16291 6.70665-6.54593h-8.81938l-5.35042 6.21276v-13.31922h-7.31813v25.8153zm-17.13311 0h7.20445v-6.2794c0-2.99859.37629-5.02901 1.10928-6.12653.51349-.7761 1.23863-1.16416 2.18329-1.16416.48996 0 1.16416.16855 2.0069.52917l2.21856-5.1074c-1.25431-.65852-2.40279-.98777-3.46896-.98777-1.01128 0-1.86186.24694-2.53998.74474-.68987.50173-1.35622 1.4111-2.0069 2.73989v-3.06522h-6.70664zm-17.70932-11.00659c.11368-1.11712.39198-1.95202.82707-2.52038.68203-.90154 1.5914-1.35622 2.7242-1.35622.98777 0 1.78348.29398 2.38712.89761.59579.58404.97209 1.57965 1.10928 2.97115zm14.35011 2.61838c0-2.46551-.40765-4.46457-1.21903-6.0011-.81138-1.53261-1.99122-2.70069-3.53559-3.51207-1.55221-.81138-3.66102-1.22296-6.3382-1.22296-3.29256 0-5.87958.90154-7.75713 2.70853-1.87755 1.807-2.81044 4.17059-2.81044 7.09862 0 2.05394.46645 3.83741 1.39934 5.35827.93289 1.51693 2.11273 2.63405 3.52775 3.33176 1.41502.70163 3.3592 1.05049 5.84039 1.05049 2.84964 0 5.04468-.40765 6.56162-1.22688 1.54045-.81922 2.83396-2.1676 3.91188-4.03731l-7.05942-.65068c-.44293.56445-.85842.95642-1.24647 1.17984-.635.3567-1.30135.53308-2.0069.53308-1.11712 0-2.02258-.40765-2.70853-1.22295-.49781-.57228-.80354-1.42286-.92506-2.56742h14.36187v-.81922zm-49.54923 8.38821h6.40875l3.66102-11.25353 3.79038 11.25353h6.37739l6.88303-18.70101h-6.88303l-3.01819 11.80621-3.95108-11.80621h-6.47539l-3.79037 11.77486-3.01035-11.77486h-6.92223zm-28.88444 0h7.16525v-8.98793c0-1.70116.27438-2.87708.81138-3.53559.54485-.65459 1.23864-.98777 2.11273-.98777.78003 0 1.39151.24694 1.83052.73691.43509.48212.65067 1.31702.65067 2.48902v10.28928h7.20445v-11.88461c0-2.46942-.56836-4.29209-1.68548-5.47193s-2.67325-1.7678-4.65663-1.7678c-1.4699 0-2.70853.26655-3.7355.80355-1.01913.537-2.03041 1.41894-3.0221 2.66541v-3.04171h-6.66746v18.70101h-.008zm-17.63876-11.00659c.11367-1.11712.39981-1.95202.8349-2.52038.67419-.90154 1.58357-1.35622 2.72421-1.35622.97993 0 1.77563.29398 2.38711.89761.58796.58404.97209 1.57965 1.10928 2.97115zm14.34619 2.61838c0-2.46551-.40765-4.46457-1.2112-6.0011-.81138-1.53261-1.99122-2.70069-3.54343-3.51207-1.54829-.81138-3.66102-1.22296-6.33819-1.22296-3.29257 0-5.87175.90154-7.7493 2.70853-1.87754 1.807-2.81044 4.17059-2.81044 7.09862 0 2.05394.46645 3.83741 1.3915 5.35827.9329 1.51693 2.11273 2.63405 3.52775 3.33176 1.42286.70163 3.36705 1.05049 5.84823 1.05049 2.85748 0 5.04469-.40765 6.56162-1.22688 1.53261-.81922 2.8418-2.1676 3.91189-4.03731l-7.05943-.65068c-.44293.56445-.86626.95642-1.24647 1.17984-.63499.3567-1.30135.53308-2.0069.53308-1.11712 0-2.03042-.40765-2.70853-1.22295-.4978-.57228-.81138-1.42286-.93289-2.56742h14.36187v-.81922zm-35.28928-13.74647v3.43367h-2.64189v5.24852h2.64189v6.57337c0 2.08922.19991 3.59831.60364 4.5312.40373.92506 1.03089 1.62277 1.87363 2.08138.85058.45077 2.16368.68595 3.94324.68595 1.54437 0 3.19457-.19599 4.97021-.58404l-.52916-4.94277c-.9525.30574-1.69332.45469-2.22249.45469-.58404 0-.99169-.19991-1.22687-.5958-.15287-.25478-.23518-.78003-.23518-1.57573v-6.62042h3.93932v-5.24851h-3.93932v-7.11429zm-25.51348 22.13468h7.16917v-8.98793c0-1.70116.26262-2.87708.80747-3.53559.537-.65459 1.23863-.98777 2.11665-.98777.78394 0 1.3915.24694 1.82659.73691.43117.48212.65459 1.31702.65459 2.48902v10.28928h7.19662v-11.88461c0-2.46942-.55661-4.29209-1.68157-5.47193-1.11712-1.17984-2.68109-1.7678-4.66055-1.7678-1.46206 0-2.70461.26655-3.73158.80355-1.0152.537-2.03041 1.41894-3.0221 2.66541v-3.04171h-6.67529zm-17.638761-11.00659c.121512-1.11712.399812-1.95202.830982-2.52038.678112-.90154 1.587488-1.35622 2.728129-1.35622.98777 0 1.77955.29398 2.37535.89761.60756.58404.97993 1.57965 1.12104 2.97115zm14.346191 2.61838c0-2.46551-.40765-4.46457-1.21512-6.0011-.8153-1.53261-1.99513-2.70069-3.53559-3.51207-1.55221-.81138-3.66494-1.22296-6.34211-1.22296-3.296488 0-5.879586.90154-7.757134 2.70853-1.869708 1.807-2.810442 4.17059-2.810442 7.09862 0 2.05394.466447 3.83741 1.399341 5.35827.928975 1.51693 2.112732 2.63405 3.523832 3.33176 1.418941.70163 3.370963 1.05049 5.844313 1.05049 2.85747 0 5.04468-.40765 6.56945-1.22688 1.53262-.81922 2.83396-2.1676 3.91189-4.03731l-7.06334-.65068c-.44685.56445-.86234.95642-1.2504 1.17984-.63107.3567-1.30135.53308-2.01082.53308-1.109277 0-2.014733-.40765-2.704605-1.22295-.489965-.57228-.803543-1.42286-.936814-2.56742h14.369709zm-33.219662 2.48902c-.607557.71731-1.375823 1.07009-2.289119 1.07009-.8545 0-1.571809-.3567-2.155848-1.06225-.57228-.70947-.870179-1.83051-.870179-3.34744 0-1.63061.2783-2.79476.842741-3.4964.56444-.68987 1.262151-1.0348 2.100972-1.0348.948573 0 1.728598.36061 2.355754 1.07792.619316.72515.936814 1.81875.936814 3.28473 0 1.62277-.309658 2.78692-.921135 3.50815m.870179-19.91219v8.94089c-.705551-.74867-1.516934-1.30919-2.41847-1.68941-.909376-.38021-1.924585-.56444-3.037786-.56444-2.285199 0-4.166667.81923-5.652242 2.46551-1.485576 1.63845-2.226404 4.00988-2.226404 7.10646 0 2.77517.670273 5.13092 2.014738 7.06726 1.348386 1.92851 3.296488 2.9006 5.840389 2.9006 1.266071 0 2.41455-.26654 3.445438-.80746.780025-.40766 1.634525-1.20336 2.571339-2.37536v2.77125h6.706648v-25.8153zm-16.799938 7.11037h-7.161336v8.99577c0 1.709-.27438 2.87708-.823142 3.53951-.544841.6546-1.246472.98385-2.100972.98385-.787864 0-1.391502-.24694-1.830511-.7369-.439009-.48997-.646754-1.32879-.646754-2.50471v-10.28143h-7.200533v11.9042c0 2.44982.56052 4.26466 1.677641 5.44449 1.121042 1.18768 2.669333 1.77172 4.640954 1.77172 1.481655 0 2.724208-.26262 3.735497-.79179 1.019128-.52916 2.030417-1.41502 3.022107-2.65757v3.02995h6.687049zm-34.238789-3.43367v3.43367h-2.641894v5.24852h2.637974v6.57337c0 2.08922.203826 3.59831.607557 4.5312.403732.92506 1.030888 1.62277 1.877548 2.08138.84666.45077 2.159768.68595 3.947162.68595 1.536532 0 3.190655-.19599 4.96629-.58404l-.529162-4.94277c-.952493.30574-1.693321.45469-2.218564.45469-.584039 0-.99953-.19991-1.226874-.5958-.152869-.25478-.231263-.78003-.231263-1.57573v-6.62042h3.939322v-5.24851h-3.943242v-7.11429zm-25.5487617 20.02979c1.689401 1.69332 4.7350266 2.53606 9.1211977 2.53606 2.496864 0 4.570398-.36454 6.212763-1.08185 1.642364-.72514 2.920194-1.78347 3.83741-3.18281.913295-1.38758 1.375823-2.92412 1.375823-4.57824 0-1.40326-.344936-2.68501-1.034807-3.82565-.685952-1.1328-1.783475-2.08529-3.292569-2.85748-1.505174-.76043-4.002038-1.52085-7.490592-2.27344-1.399342-.28614-2.2930388-.60756-2.6732521-.94465-.3841329-.32926-.5761994-.70555-.5761994-1.10928 0-.56836.2391032-1.04657.7094701-1.43462.4664471-.3959 1.1641584-.58796 2.0892124-.58796 1.124961 0 2.014739.26654 2.653654.7957.638915.53308 1.058325 1.36799 1.254311 2.53214l7.514111-.43509c-.325337-2.68109-1.356224-4.63311-3.084822-5.85606-1.732518-1.22688-4.245062-1.83835-7.549389-1.83835-2.685011 0-4.8055817.33317-6.3460332 1.0152-1.5443713.6742-2.6967702 1.59925-3.4689558 2.77909-.7643462 1.17984-1.14847916 2.43415-1.14847916 3.75901 0 2.01866.74474756 3.67671 2.24992156 4.98197 1.4934149 1.30135 3.9824397 2.34792 7.4827536 3.13186 2.136249.46645 3.496394.97209 4.084352 1.50518.580119.52916.874099 1.12496.874099 1.79131 0 .70555-.305739 1.32487-.921136 1.85795-.611477.537-1.493414.79962-2.630134.79962-1.528693 0-2.6967706-.52132-3.5159929-1.55613-.5017247-.65067-.8388209-1.58357-1.0034493-2.81828l-7.5885858.45861c.22342427 2.6027 1.1798369 4.75462 2.8653183 6.43619" stroke-width="3.91972"/><g transform="scale(3.9197241)"><path d="m0 45.354h53.857l-22.675-22.677 22.675-22.677h-53.857z"/><path d="m76.535 45.354v-22.677l-22.678 22.677z"/></g></g></svg>